#N canvas 449 134 889 676 10;
#X obj 137 50 tgl 15 0 empty empty empty 17 7 0 10 -262144 -1 -1 0
1;
#X obj 137 70 s onOff;
#X obj 515 169 soundfiler;
#X obj 90 518 tabread4~ fileL;
#X obj 102 381 phasor~;
#X floatatom 509 229 12 0 0 0 - - -;
#X obj 507 201 / 44100;
#N canvas 552 305 925 542 arrays 0;
#N canvas 0 22 450 278 (subpatch) 0;
#X array fileL 1.96175e+06 float 0;
#X coords 0 1 1.96174e+06 -1 200 140 1 0 0;
#X restore 97 0 graph;
#N canvas 0 22 450 278 (subpatch) 0;
#X array fileR 1.96175e+06 float 0;
#X coords 0 1 1.96174e+06 -1 200 140 1 0 0;
#X restore 108 240 graph;
#X restore 574 87 pd arrays;
#X obj 570 197 s fileLenSamps;
#X obj 625 229 r fileLenSamps;
#X obj 627 299 s playbackRate;
#X obj 621 260 expr 44100 / $f1;
#X floatatom 72 287 5 0 0 0 - - -;
#X msg 162 353 0;
#X obj 108 587 dac~;
#X obj 209 518 tabread4~ fileR;
#X obj 45 248 r playbackRate;
#X obj 99 439 *~;
#X obj 155 408 r fileLenSamps;
#X obj 176 230 r onOff;
#X obj 108 325 f;
#X obj 492 104 loadbang;
#X obj 159 264 sel 1 0;
#X msg 175 317 0;
#X msg 496 140 read -resize testAudio_stereo.wav fileL fileR;
#X connect 0 0 1 0;
#X connect 2 0 6 0;
#X connect 2 0 8 0;
#X connect 3 0 14 0;
#X connect 4 0 17 0;
#X connect 6 0 5 0;
#X connect 9 0 11 0;
#X connect 11 0 10 0;
#X connect 12 0 20 1;
#X connect 13 0 4 1;
#X connect 15 0 14 1;
#X connect 16 0 12 0;
#X connect 17 0 3 0;
#X connect 17 0 15 0;
#X connect 18 0 17 1;
#X connect 19 0 22 0;
#X connect 20 0 4 0;
#X connect 21 0 24 0;
#X connect 22 0 20 0;
#X connect 22 0 13 0;
#X connect 22 1 23 0;
#X connect 23 0 4 0;
#X connect 24 0 2 0;
