#N canvas 103 77 965 782 10;
#X obj 13 22 tgl 15 0 empty empty empty 17 7 0 10 -262144 -1 -1 0 1
;
#X obj 13 42 s onOff;
#X obj 78 548 dac~;
#X obj 79 112 r onOff;
#X floatatom 445 289 10 0 1000 0 - - -, f 10;
#N canvas 98 22 648 669 fft-analysis 0;
#X obj 35 589 *~;
#X obj 143 305 *~;
#X obj 158 150 *~;
#X obj 35 72 *~;
#X obj 76 527 *~;
#X obj 35 44 inlet~;
#X obj 35 528 *~;
#X obj 34 101 rfft~;
#X obj 35 558 rifft~;
#X obj 36 616 outlet~;
#X obj 119 149 *~;
#X obj 119 176 +~;
#X obj 165 278 r mask-level;
#X obj 100 422 /~;
#X obj 355 23 block~ 1024 4;
#X text 176 446 is signal power and "m" is mask.;
#X obj 131 332 -~;
#X obj 131 355 max~ 0;
#X obj 99 448 q8_sqrt~;
#X text 175 464 (zero if s < m).;
#X obj 144 256 tabreceive~ mask;
#X obj 76 72 tabreceive~ \$0-hann;
#X obj 69 590 tabreceive~ \$0-hann;
#N canvas 91 250 910 495 calculate-mask 0;
#X obj 125 379 inlet~;
#X msg 371 283 0;
#X msg 371 166 0;
#X obj 240 196 float;
#X obj 294 200 + 1;
#X obj 240 144 bang~;
#X obj 240 169 spigot;
#X floatatom 411 218 0 0 0 0 - - -;
#X obj 315 408 -~;
#X obj 371 258 sel 0;
#X obj 327 443 *~;
#X obj 293 443 +~;
#X floatatom 351 313 0 0 0 0 - - -;
#X obj 240 219 t f f;
#X obj 370 113 r make-mask;
#X obj 371 141 t b f;
#X obj 411 165 /;
#X text 483 212 number of;
#X text 491 227 frames;
#X floatatom 481 166 0 0 0 0 - - -;
#X obj 480 113 r window-msec;
#X obj 481 136 / 4;
#X text 521 133 hop size (analysis;
#X text 546 149 period) in msec;
#X obj 359 408 tabreceive~ mask;
#X obj 292 468 tabsend~ mask;
#X obj 371 218 <;
#X obj 235 258 expr 1/($f1+1);
#X text 134 17 calculate a mask using N msec of background noise;
#X text 43 354 current power (for each channel);
#X text 367 430 average the current power into the last mask to get
the new mask. The new value is weighted 1/n on the nth iteration.;
#X text 390 312 weight to average in new power to mask;
#X text 11 203 loop counting to desired;
#X text 78 219 number of frames;
#X text 72 39 This loops for "make-mask" milliseconds \, averaging
power in each channel over that amount of time. This is done by a moving
average whose weight is adjusted to average each new value equally
with each of the accumulating ones.;
#X connect 0 0 8 0;
#X connect 1 0 12 0;
#X connect 2 0 3 1;
#X connect 2 0 26 0;
#X connect 3 0 13 0;
#X connect 3 0 4 0;
#X connect 4 0 3 1;
#X connect 5 0 6 0;
#X connect 6 0 3 0;
#X connect 7 0 26 1;
#X connect 8 0 10 0;
#X connect 9 0 1 0;
#X connect 10 0 11 1;
#X connect 11 0 25 0;
#X connect 12 0 10 1;
#X connect 13 0 26 0;
#X connect 13 1 27 0;
#X connect 14 0 15 0;
#X connect 15 0 2 0;
#X connect 15 1 16 0;
#X connect 16 0 7 0;
#X connect 20 0 21 0;
#X connect 21 0 16 1;
#X connect 21 0 19 0;
#X connect 24 0 8 1;
#X connect 24 0 11 0;
#X connect 26 0 6 1;
#X connect 26 0 9 0;
#X connect 27 0 12 0;
#X restore 132 203 pd calculate-mask;
#X text 91 98 real Fourier transform;
#X obj 357 57 loadbang;
#X msg 357 80 \; pd dsp 1 \; window-size 1024;
#X text 193 355 ... but not less than zero;
#X text 101 561 real inverse Fourier transform;
#X text 196 498 normalize by 2/(3N) where N is window size;
#X text 168 332 current power ("s") minus level-adjusted mask ("m")
;
#X text 156 175 compute power (call it "s") in each channel;
#X obj 123 395 +~ 1e-20;
#X text 203 395 protect against division by zero;
#X text 179 426 compute sqrt((s-m)/s) where "s";
#X text 296 204 <- subwindow calculates noise mask;
#X obj 98 499 /~ 1536;
#X connect 0 0 9 0;
#X connect 1 0 16 1;
#X connect 2 0 11 1;
#X connect 3 0 7 0;
#X connect 4 0 8 1;
#X connect 5 0 3 0;
#X connect 6 0 8 0;
#X connect 7 0 6 0;
#X connect 7 0 10 0;
#X connect 7 0 10 1;
#X connect 7 1 4 0;
#X connect 7 1 2 0;
#X connect 7 1 2 1;
#X connect 8 0 0 0;
#X connect 10 0 11 0;
#X connect 11 0 16 0;
#X connect 11 0 23 0;
#X connect 11 0 32 0;
#X connect 12 0 1 1;
#X connect 13 0 18 0;
#X connect 16 0 17 0;
#X connect 17 0 13 0;
#X connect 18 0 36 0;
#X connect 20 0 1 0;
#X connect 21 0 3 1;
#X connect 22 0 0 1;
#X connect 25 0 26 0;
#X connect 32 0 13 1;
#X connect 36 0 6 1;
#X connect 36 0 4 1;
#X restore 78 443 pd fft-analysis;
#N canvas 0 110 565 454 hann-window 0;
#N canvas 0 22 450 300 (subpatch) 0;
#X array \$0-hann 1024 float 0;
#X coords 0 1 1023 0 300 100 1;
#X restore 82 311 graph;
#X obj 378 165 osc~;
#X obj 378 190 *~ -0.5;
#X obj 378 214 +~ 0.5;
#X obj 331 247 tabwrite~ \$0-hann;
#X obj 37 88 r window-size;
#X obj 38 173 /;
#X obj 127 142 samplerate~;
#X obj 38 251 s window-sec;
#X obj 177 204 swap;
#X obj 177 228 /;
#X obj 177 252 s window-hz;
#X obj 49 201 * 1000;
#X obj 49 228 s window-msec;
#X obj 38 115 t f b f;
#X msg 173 92 resize \$1;
#X obj 173 116 s \$0-hann;
#X obj 330 105 r window-hz;
#X msg 382 130 0;
#X obj 330 131 t f b;
#X text 15 8 calculate Hann window table (variable window size) and
constants window-hz (fundamental frequency of analysis) \, window-sec
and window-msec (analysis window size in seconds and msec).;
#X connect 1 0 2 0;
#X connect 2 0 3 0;
#X connect 3 0 4 0;
#X connect 5 0 14 0;
#X connect 6 0 8 0;
#X connect 6 0 12 0;
#X connect 7 0 6 1;
#X connect 7 0 9 1;
#X connect 9 0 10 0;
#X connect 9 1 10 1;
#X connect 10 0 11 0;
#X connect 12 0 13 0;
#X connect 14 0 6 0;
#X connect 14 0 9 0;
#X connect 14 1 7 0;
#X connect 14 2 15 0;
#X connect 15 0 16 0;
#X connect 17 0 19 0;
#X connect 18 0 1 1;
#X connect 19 0 1 0;
#X connect 19 1 4 0;
#X connect 19 1 18 0;
#X restore 474 380 pd hann-window;
#X obj 445 314 s mask-level;
#X text 522 239 off;
#X msg 505 262 0;
#X text 621 213 calculate noise mask;
#X msg 598 259 \; make-mask 2000;
#N canvas 806 123 648 669 fft-analysis 0;
#X obj 35 589 *~;
#X obj 143 305 *~;
#X obj 158 150 *~;
#X obj 35 72 *~;
#X obj 76 527 *~;
#X obj 35 44 inlet~;
#X obj 35 528 *~;
#X obj 34 101 rfft~;
#X obj 35 558 rifft~;
#X obj 36 616 outlet~;
#X obj 119 149 *~;
#X obj 119 176 +~;
#X obj 165 278 r mask-level;
#X obj 100 422 /~;
#X obj 355 23 block~ 1024 4;
#X text 176 446 is signal power and "m" is mask.;
#X obj 131 332 -~;
#X obj 131 355 max~ 0;
#X obj 99 448 q8_sqrt~;
#X text 175 464 (zero if s < m).;
#X obj 76 72 tabreceive~ \$0-hann;
#X obj 69 590 tabreceive~ \$0-hann;
#N canvas 91 250 910 495 calculate-mask 0;
#X obj 125 379 inlet~;
#X msg 371 283 0;
#X msg 371 166 0;
#X obj 240 196 float;
#X obj 294 200 + 1;
#X obj 240 144 bang~;
#X obj 240 169 spigot;
#X floatatom 411 218 0 0 0 0 - - -;
#X obj 315 408 -~;
#X obj 371 258 sel 0;
#X obj 327 443 *~;
#X obj 293 443 +~;
#X floatatom 351 313 0 0 0 0 - - -;
#X obj 240 219 t f f;
#X obj 370 113 r make-mask;
#X obj 371 141 t b f;
#X obj 411 165 /;
#X text 483 212 number of;
#X text 491 227 frames;
#X floatatom 481 166 0 0 0 0 - - -;
#X obj 480 113 r window-msec;
#X obj 481 136 / 4;
#X text 521 133 hop size (analysis;
#X text 546 149 period) in msec;
#X obj 359 408 tabreceive~ mask;
#X obj 292 468 tabsend~ mask;
#X obj 371 218 <;
#X obj 235 258 expr 1/($f1+1);
#X text 134 17 calculate a mask using N msec of background noise;
#X text 43 354 current power (for each channel);
#X text 367 430 average the current power into the last mask to get
the new mask. The new value is weighted 1/n on the nth iteration.;
#X text 390 312 weight to average in new power to mask;
#X text 11 203 loop counting to desired;
#X text 78 219 number of frames;
#X text 72 39 This loops for "make-mask" milliseconds \, averaging
power in each channel over that amount of time. This is done by a moving
average whose weight is adjusted to average each new value equally
with each of the accumulating ones.;
#X connect 0 0 8 0;
#X connect 1 0 12 0;
#X connect 2 0 3 1;
#X connect 2 0 26 0;
#X connect 3 0 13 0;
#X connect 3 0 4 0;
#X connect 4 0 3 1;
#X connect 5 0 6 0;
#X connect 6 0 3 0;
#X connect 7 0 26 1;
#X connect 8 0 10 0;
#X connect 9 0 1 0;
#X connect 10 0 11 1;
#X connect 11 0 25 0;
#X connect 12 0 10 1;
#X connect 13 0 26 0;
#X connect 13 1 27 0;
#X connect 14 0 15 0;
#X connect 15 0 2 0;
#X connect 15 1 16 0;
#X connect 16 0 7 0;
#X connect 20 0 21 0;
#X connect 21 0 16 1;
#X connect 21 0 19 0;
#X connect 24 0 8 1;
#X connect 24 0 11 0;
#X connect 26 0 6 1;
#X connect 26 0 9 0;
#X connect 27 0 12 0;
#X restore 132 203 pd calculate-mask;
#X text 91 98 real Fourier transform;
#X obj 357 57 loadbang;
#X msg 357 80 \; pd dsp 1 \; window-size 1024;
#X text 193 355 ... but not less than zero;
#X text 101 561 real inverse Fourier transform;
#X text 196 498 normalize by 2/(3N) where N is window size;
#X text 168 332 current power ("s") minus level-adjusted mask ("m")
;
#X text 156 175 compute power (call it "s") in each channel;
#X obj 123 395 +~ 1e-20;
#X text 203 395 protect against division by zero;
#X text 179 426 compute sqrt((s-m)/s) where "s";
#X text 296 204 <- subwindow calculates noise mask;
#X obj 98 499 /~ 1536;
#X obj 144 256 tabreceive~ mask;
#X connect 0 0 9 0;
#X connect 1 0 16 1;
#X connect 2 0 11 1;
#X connect 3 0 7 0;
#X connect 4 0 8 1;
#X connect 5 0 3 0;
#X connect 6 0 8 0;
#X connect 7 0 6 0;
#X connect 7 0 10 0;
#X connect 7 0 10 1;
#X connect 7 1 4 0;
#X connect 7 1 2 0;
#X connect 7 1 2 1;
#X connect 8 0 0 0;
#X connect 10 0 11 0;
#X connect 11 0 16 0;
#X connect 11 0 22 0;
#X connect 11 0 31 0;
#X connect 12 0 1 1;
#X connect 13 0 18 0;
#X connect 16 0 17 0;
#X connect 17 0 13 0;
#X connect 18 0 35 0;
#X connect 20 0 3 1;
#X connect 21 0 0 1;
#X connect 24 0 25 0;
#X connect 31 0 13 1;
#X connect 35 0 6 1;
#X connect 35 0 4 1;
#X connect 36 0 1 0;
#X restore 198 443 pd fft-analysis;
#X obj 505 63 bng 15 250 50 0 empty empty empty 17 7 0 10 -262144 -1
-1;
#X obj 405 177 env~;
#X floatatom 405 199 5 0 0 0 - - -, f 5;
#X obj 445 261 *;
#N canvas 1 22 592 442 mask-table 0;
#N canvas 0 22 450 300 (subpatch) 0;
#X array mask 512 float 0;
#X coords 0 500 511 0 400 300 1 0 0;
#X restore 100 71 graph;
#X text 22 -1 This table (1002-mask) is the average power measured
in each channel of the spectrum \, presumed to represent the noise
floor.;
#X msg 426 14 \; mask write mask2.txt;
#X restore 474 402 pd mask-table k;
#X obj 633 370 s mask;
#X msg 685 341 const 499;
#X msg 633 341 const 1;
#X floatatom 400 713 5 0 0 0 - - -, f 5;
#X floatatom 520 715 5 0 0 0 - - -, f 5;
#X obj 400 691 / 100;
#X obj 520 693 wrap 0;
#X obj 520 671 / 10;
#X obj 400 669 r fibi;
#X obj 520 650 r fibi;
#X obj 400 100 s fibi;
#X msg 758 340 const 250;
#X obj 731 417 hsl 128 15 0 500 0 1 empty empty empty -2 -8 0 10 -262144
-1 -1 100 1;
#X msg 711 380 const \$1;
#X obj 144 664 writesf~ 2;
#X obj 211 474 r onOff;
#X obj 211 520 sel 1 0;
#X msg 211 563 start;
#X msg 253 563 stop;
#X obj 211 543 t b b;
#X msg 263 592 open Mist_form_wip2.wav;
#X obj 395 368 *~ 0.5;
#X obj 352 368 *~ 0.5;
#X obj 352 390 +~;
#X obj 352 439 clip~ -0.9 0.9;
#N canvas 1025 338 600 421 sequence 0;
#X obj 48 110 sel 1;
#X obj 49 142 bng 15 250 50 0 empty empty empty 17 7 0 10 -262144 -1
-1;
#X obj 49 170 int 1;
#X obj 49 201 t f b f;
#X obj 49 229 int 0;
#X obj 49 260 +;
#X floatatom 93 282 10 0 0 0 - - -, f 10;
#X obj 49 282 s fib;
#X obj 76 131 r fib;
#X text 134 136 reset;
#X msg 136 153 1;
#X obj 48 45 inlet;
#X obj 93 332 outlet;
#X obj 136 47 inlet;
#X obj 220 43 loadbang;
#X msg 393 75 \; mask 0 0 0.8 0 1 0 0 0 1 0 0 0.7 0 0 0 1 0 0 0.5 0
0 0 0 1 0 0 0 0 0 0 0 0 1 0 0 0 0.4 0 0 0 0 0 0 0 1 0 0 0 1;
#X obj 220 110 s randF;
#X obj 271 110 s randI;
#X msg 313 214 \; mask read mask1.txt;
#X obj 297 26 bng 15 250 50 0 empty empty empty 17 7 0 10 -262144 -1
-1;
#X obj 220 65 random 100;
#X obj 220 87 / 100;
#X obj 184 148 r onOff;
#X obj 184 170 sel 0 1;
#X obj 205 388 tabwrite skiparray;
#X obj 310 271 r playback1;
#X obj 310 293 * 100;
#X obj 310 315 int;
#X floatatom 310 337 5 0 0 0 - - -, f 5;
#N canvas 0 22 450 300 westcoast 0;
#X obj 39 19 noise~;
#X obj 39 72 samphold~;
#X obj 39 94 threshold~ 0.3;
#X obj 39 133 outlet;
#X obj 106 50 phasor~;
#X obj 106 6 inlet;
#X obj 106 28 sig~;
#X obj 202 43 r randF;
#X obj 10 131 bng 15 250 50 0 empty empty empty 17 7 0 10 -262144 -1
-1;
#X msg 202 65 set \$1 1 0.1 1;
#X obj 23 46 bp~ 1000 10;
#X obj 146 140 r onOff;
#X obj 143 175 sel 1;
#X obj 143 218 f;
#X obj 170 218 - 1;
#X obj 188 169 loadbang;
#X obj 143 240 pow 1;
#X floatatom 143 262 5 0 0 0 - - -, f 5;
#X msg 188 191 4;
#X connect 0 0 10 0;
#X connect 1 0 2 0;
#X connect 2 0 3 0;
#X connect 2 0 8 0;
#X connect 4 0 1 1;
#X connect 5 0 6 0;
#X connect 6 0 4 0;
#X connect 7 0 9 0;
#X connect 9 0 2 0;
#X connect 10 0 1 0;
#X connect 11 0 12 0;
#X connect 12 0 13 0;
#X connect 13 0 14 0;
#X connect 13 0 16 0;
#X connect 14 0 13 1;
#X connect 15 0 18 0;
#X connect 16 0 17 0;
#X connect 16 0 10 2;
#X connect 18 0 13 0;
#X restore 199 296 pd westcoast;
#X obj 199 316 bng 15 250 50 0 empty empty empty 17 7 0 10 -262144
-1 -1;
#X obj 199 336 random 2;
#X floatatom 169 390 5 0 0 0 - - -, f 5;
#X obj 334 164 >=;
#X floatatom 327 95 5 0 0 0 - - -, f 5;
#X obj 92 238 loadbang;
#X obj 93 306 pow 2;
#X obj 199 358 spigot;
#X obj 255 336 r onOff;
#X obj 260 366 tgl 15 0 empty empty empty 17 7 0 10 -262144 -1 -1 0
1;
#X obj 437 173 sel 0 1;
#X obj 427 150 random 2;
#X obj 399 128 loadbang;
#X msg 438 214 \; mask read mask2.txt;
#X obj 374 151 bng 15 250 50 0 empty empty empty 17 7 0 10 -262144
-1 -1;
#X connect 0 0 1 0;
#X connect 1 0 2 0;
#X connect 2 0 3 0;
#X connect 3 0 4 1;
#X connect 3 1 4 0;
#X connect 3 2 5 1;
#X connect 4 0 5 0;
#X connect 4 0 6 0;
#X connect 5 0 7 0;
#X connect 6 0 29 0;
#X connect 6 0 33 0;
#X connect 6 0 36 0;
#X connect 8 0 2 1;
#X connect 10 0 4 1;
#X connect 10 0 2 0;
#X connect 11 0 0 0;
#X connect 13 0 10 0;
#X connect 14 0 20 0;
#X connect 19 0 20 0;
#X connect 20 0 17 0;
#X connect 20 0 21 0;
#X connect 20 0 33 1;
#X connect 20 0 34 0;
#X connect 21 0 16 0;
#X connect 22 0 23 0;
#X connect 25 0 26 0;
#X connect 26 0 27 0;
#X connect 27 0 28 0;
#X connect 28 0 24 1;
#X connect 29 0 30 0;
#X connect 30 0 31 0;
#X connect 31 0 32 0;
#X connect 31 0 37 0;
#X connect 35 0 6 0;
#X connect 36 0 12 0;
#X connect 37 0 24 0;
#X connect 38 0 39 0;
#X connect 38 0 37 1;
#X connect 40 0 18 0;
#X connect 40 1 43 0;
#X connect 41 0 40 0;
#X connect 42 0 41 0;
#X connect 44 0 41 0;
#X restore 400 78 pd sequence;
#X obj 400 56 r onOff;
#X obj 460 236 r fibi;
#N canvas 768 261 752 592 audio 0;
#X obj 121 114 inlet;
#X obj 49 538 outlet~;
#X obj 170 539 outlet~;
#X obj 52 421 tabread4~ fileL;
#X obj 52 284 phasor~;
#X floatatom 7 188 10 0 0 0 - - -, f 10;
#X msg 121 256 0;
#X obj 171 421 tabread4~ fileR;
#X obj 7 151 r playbackRate;
#X obj 52 342 *~;
#X obj 94 325 r fileLenSamps;
#X obj 52 228 f;
#X obj 121 167 sel 1 0;
#X msg 140 223 0;
#X obj 503 202 soundfiler;
#X floatatom 503 262 12 0 0 0 - - -, f 12;
#X obj 503 234 / 44100;
#N canvas 552 305 925 542 arrays 0;
#N canvas 0 22 450 278 (subpatch) 0;
#X array fileL 5.70822e+06 float 0;
#X coords 0 1 5.70822e+06 -1 200 140 1 0 0;
#X restore 97 0 graph;
#N canvas 0 22 450 278 (subpatch) 0;
#X array fileR 5.70822e+06 float 0;
#X coords 0 1 5.70822e+06 -1 200 140 1 0 0;
#X restore 108 240 graph;
#X restore 606 77 pd arrays;
#X obj 555 234 s fileLenSamps;
#X obj 617 269 r fileLenSamps;
#X obj 617 319 s playbackRate;
#X obj 617 293 expr 44100 / $f1;
#X obj 486 102 loadbang;
#X obj 412 143 bng 15 250 50 0 empty empty empty 17 7 0 10 -262144
-1 -1;
#X obj 429 99 sel 0;
#X obj 429 78 r onOff;
#X msg 429 162 read -resize Mist_form_wip2.wav fileL fileR;
#X obj 429 121 del 3000;
#X obj 529 26 bng 15 250 50 0 empty empty empty 17 7 0 10 -262144 -1
-1;
#X obj 283 317 tgl 15 0 empty empty empty 17 7 0 10 -262144 -1 -1 1
1;
#X obj 283 359 snapshot~;
#X obj 283 418 /;
#X floatatom 283 440 10 0 0 0 - - -, f 10;
#X obj 373 483 hsl 195 15 0 1 0 1 empty empty empty -2 -8 0 10 -262144
-1 -1 0 1;
#X text 369 500 Playback position;
#X obj 311 315 loadbang;
#X obj 283 481 s playback1;
#X obj 311 401 r fileLenSamps;
#X text 262 56 after first play this swaps to the new recording to
preserve the original ......for now;
#X text 245 184 need to work outhow long exactly it takes to bounce.
and prevent playback stoping until its done;
#X text 550 25 reset buffer;
#X obj 166 267 r playback;
#X msg 486 126 read -maxsize 7.938e+06 -resize Mist_form_wip.wav fileL
fileR;
#X obj 283 337 metro 1;
#X connect 0 0 12 0;
#X connect 3 0 1 0;
#X connect 4 0 9 0;
#X connect 5 0 11 1;
#X connect 6 0 4 1;
#X connect 7 0 2 0;
#X connect 8 0 5 0;
#X connect 9 0 3 0;
#X connect 9 0 7 0;
#X connect 9 0 30 0;
#X connect 10 0 9 1;
#X connect 11 0 4 0;
#X connect 12 0 11 0;
#X connect 12 0 6 0;
#X connect 12 1 13 0;
#X connect 13 0 4 0;
#X connect 14 0 16 0;
#X connect 14 0 18 0;
#X connect 16 0 15 0;
#X connect 19 0 21 0;
#X connect 21 0 20 0;
#X connect 22 0 42 0;
#X connect 24 0 27 0;
#X connect 25 0 24 0;
#X connect 26 0 14 0;
#X connect 27 0 23 0;
#X connect 28 0 42 0;
#X connect 29 0 43 0;
#X connect 30 0 31 0;
#X connect 31 0 32 0;
#X connect 32 0 33 0;
#X connect 32 0 36 0;
#X connect 35 0 29 0;
#X connect 37 0 31 1;
#X connect 41 0 4 1;
#X connect 42 0 14 0;
#X connect 43 0 30 0;
#X restore 79 134 pd audio;
#N canvas 1086 330 481 385 Skip 0;
#X obj 9 16 inlet~;
#X obj 22 355 s playback;
#X obj 9 43 env~;
#X floatatom 9 69 5 0 0 0 - - -, f 5;
#X obj 9 148 bng 15 250 50 0 empty empty empty 17 7 0 10 -262144 -1
-1;
#X obj 9 123 sel 1;
#X obj 9 98 > 92;
#X floatatom 48 69 5 0 0 0 - - -, f 5;
#X obj 90 245 t b b;
#X msg 48 43 88;
#X msg 77 43 95;
#X obj 90 269 f;
#X obj 90 334 +;
#X floatatom 90 357 10 0 0 0 - - -, f 10;
#X floatatom 117 334 10 0 0 0 - - -, f 10;
#X obj 117 291 - 5;
#X obj 135 245 r playback1;
#X obj 117 269 random 10;
#X obj 117 313 / 1000;
#X obj 115 20 inlet;
#X text 157 21 Threshold;
#X obj 116 197 threshold~ 100 100;
#X obj 116 224 bng 15 250 50 0 empty empty empty 17 7 0 10 -262144
-1 -1;
#X floatatom 115 46 5 0 0 0 - - -, f 5;
#X obj 222 222 bng 15 250 50 0 empty empty empty 17 7 0 10 -262144
-1 -1;
#X msg 22 323 0;
#X text 54 123 old way;
#X text 58 202 new way;
#X msg 115 74 set \$1 20 \$1 100;
#N canvas 0 22 450 300 skipar 0;
#N canvas 0 22 450 278 (subpatch) 0;
#X array skiparray 100 float 2;
#X coords 0 1 99 0 200 140 1 0 0;
#X restore 123 60 graph;
#X restore 324 18 pd skipar;
#X obj 248 116 tabread skiparray;
#X obj 248 26 r playback1;
#X obj 248 48 * 100;
#X obj 248 70 int;
#X obj 248 142 sel 0 1;
#X msg 116 160 set 100 100 100 100;
#X msg 262 181 set 70 20 70 100;
#X obj 318 46 r fibi;
#X obj 318 68 >= 1;
#X obj 249 93 spigot;
#X obj 298 95 tgl 15 0 empty empty empty 17 7 0 10 -262144 -1 -1 0
1;
#X connect 0 0 2 0;
#X connect 2 0 3 0;
#X connect 3 0 6 0;
#X connect 3 0 21 0;
#X connect 5 0 4 0;
#X connect 6 0 5 0;
#X connect 7 0 6 1;
#X connect 8 0 11 0;
#X connect 8 1 17 0;
#X connect 9 0 7 0;
#X connect 10 0 7 0;
#X connect 11 0 12 0;
#X connect 12 0 13 0;
#X connect 12 0 1 0;
#X connect 15 0 18 0;
#X connect 16 0 11 1;
#X connect 17 0 15 0;
#X connect 18 0 14 0;
#X connect 18 0 12 1;
#X connect 19 0 23 0;
#X connect 21 0 22 0;
#X connect 21 1 24 0;
#X connect 22 0 8 0;
#X connect 23 0 28 0;
#X connect 25 0 1 0;
#X connect 28 0 35 0;
#X connect 30 0 34 0;
#X connect 31 0 32 0;
#X connect 32 0 33 0;
#X connect 33 0 39 0;
#X connect 34 0 35 0;
#X connect 34 1 36 0;
#X connect 35 0 21 0;
#X connect 36 0 21 0;
#X connect 37 0 38 0;
#X connect 38 0 40 0;
#X connect 39 0 30 0;
#X connect 40 0 39 1;
#X restore 219 191 pd Skip;
#X text 258 212 to be implimented;
#N canvas 0 22 450 300 noise 0;
#X obj 169 161 *~;
#X obj 158 47 noise~;
#X obj 191 135 dbtorms;
#X floatatom 190 117 5 0 70 0 - - -, f 5;
#X obj 110 47 r onOff;
#X obj 158 117 *~;
#X obj 208 46 r fibi;
#X obj 169 183 outlet~;
#X obj 189 98 clip 0 62;
#X obj 188 73 * 4;
#X obj 119 84 bp~ 1000 5;
#X connect 0 0 7 0;
#X connect 1 0 10 0;
#X connect 2 0 0 1;
#X connect 3 0 2 0;
#X connect 4 0 5 1;
#X connect 5 0 0 0;
#X connect 6 0 9 0;
#X connect 8 0 3 0;
#X connect 9 0 8 0;
#X connect 10 0 5 0;
#X restore 397 402 pd noise;
#X obj 211 496 spigot;
#X obj 261 496 tgl 15 0 empty empty empty 17 7 0 10 -262144 -1 -1 0
1;
#X text 279 496 keep off till new parts implimented;
#X text 198 420 change to vd~ for pitch shifting?;
#X text 447 442 adds too much distrotion \, alter to be more subtle
or remove;
#X text 258 72 need to add randomness;
#X obj 400 734 vd~ d1;
#X obj 520 735 vd~ d1;
#X obj 699 136 r randF;
#X obj 598 210 bng 15 250 50 0 empty empty empty 17 7 0 10 -262144
-1 -1;
#X floatatom 782 153 5 0 0 0 - - -, f 5;
#X obj 598 183 threshold~ 0.1;
#X msg 666 161 set \$1 1 0.1 1;
#X obj 598 116 r playback1;
#X obj 598 138 sig~;
#X obj 369 750 -~;
#X obj 489 752 -~;
#X obj 598 236 spigot;
#X obj 702 236 r fibi;
#X obj 674 236 < 1;
#N canvas 581 22 802 888 grains 0;
#X obj 3 2 inlet~;
#X obj 219 851 outlet~;
#X obj 58 752 vd~ b1;
#X obj 57 415 phasor~;
#X obj 58 595 *~ -1;
#X obj 58 620 +~ 1;
#X obj 114 737 sig~ 1;
#X obj 146 770 cos~;
#X obj 114 770 -~;
#X obj 114 795 *~ 0.5;
#X obj 58 796 *~;
#X obj 76 682 samphold~;
#X obj 58 709 *~;
#X obj 77 654 sig~;
#X floatatom 167 394 5 0 0 0 - - -, f 5;
#X floatatom 120 274 10 0 0 0 - - -, f 10;
#X floatatom 89 377 5 0 0 0 - - -, f 5;
#X obj 167 368 / 44.1;
#X obj 319 744 vd~ b1;
#X obj 319 576 *~ -1;
#X obj 319 609 +~ 1;
#X obj 404 773 cos~;
#X obj 374 772 -~;
#X obj 374 797 *~ 0.5;
#X obj 318 793 *~;
#X obj 337 677 samphold~;
#X obj 319 701 *~;
#X obj 337 649 sig~;
#X obj 319 490 +~ 0.5;
#X obj 319 512 wrap~;
#X obj 120 338 expr (pow(2 \, ($f2/12)) - 1) * (44100/$f1);
#X text 190 769 another way to;
#X text 164 795 make a Hanning window;
#X obj 119 97 inlet;
#X obj 273 63 inlet;
#N canvas 0 22 450 278 (subpatch) 0;
#X array taaab 100 float 1;
#A 0 0.0642857 0.121429 0.128572 0.15 0.164286 0.157143 0.164285 0.171428
0.171428 0.178571 0.185714 0.185714 0.192857 0.207142 0.221428 0.221428
0.22857 0.242856 0.249999 0.264284 0.27857 0.285713 0.292856 0.307141
0.314284 0.328569 0.342855 0.349998 0.342857 0.342857 0.342857 0.346429
0.35 0.357143 0.364285 0.364285 0.371428 0.371428 0.378571 0.385714
0.385714 0.385714 0.385714 0.385714 0.385714 0.385714 0.385714 0.385714
0.385714 0.385714 0.385714 0.385714 0.385714 0.385714 0.385714 0.385714
0.385714 0.385714 0.399999 0.399999 0.399999 0.399999 0.392857 0.385714
0.371428 0.371428 0.364285 0.364285 0.364285 0.364285 0.364285 0.364285
0.364285 0.364285 0.364285 0.357143 0.342857 0.335714 0.328572 0.328572
0.321429 0.307143 0.3 0.292858 0.285715 0.278572 0.264287 0.242858
0.235715 0.22143 0.214287 0.192859 0.185716 0.178573 0.17143 0.157145
0.157145 0.150002 0.150002 0.0928568;
#X coords 0 1 100 0 200 140 1 0 0;
#X restore 533 166 graph;
#X obj 383 542 *~ 44100;
#X obj 376 571 tabread~ taaab;
#X obj 121 581 tabread~ taaab;
#X obj 370 410 random 10;
#X floatatom 370 460 5 0 0 0 - - -, f 5;
#X obj 370 435 / 10;
#X obj 368 380 loadbang;
#X msg 51 229 5750.39;
#X obj 48 187 loadbang;
#X obj 374 741 sig~ 1;
#X obj 4 65 delwrite~ b1 500;
#X obj 129 552 *~ 44100;
#X connect 0 0 46 0;
#X connect 2 0 10 0;
#X connect 3 0 4 0;
#X connect 3 0 7 0;
#X connect 3 0 28 0;
#X connect 3 0 11 1;
#X connect 3 0 47 0;
#X connect 4 0 5 0;
#X connect 5 0 12 0;
#X connect 6 0 8 0;
#X connect 7 0 8 1;
#X connect 8 0 9 0;
#X connect 10 0 1 0;
#X connect 11 0 12 1;
#X connect 12 0 2 0;
#X connect 13 0 11 0;
#X connect 14 0 27 0;
#X connect 14 0 13 0;
#X connect 15 0 30 0;
#X connect 15 0 17 0;
#X connect 16 0 3 0;
#X connect 17 0 14 0;
#X connect 18 0 24 0;
#X connect 19 0 20 0;
#X connect 20 0 26 0;
#X connect 21 0 22 1;
#X connect 22 0 23 0;
#X connect 24 0 1 0;
#X connect 25 0 26 1;
#X connect 26 0 18 0;
#X connect 27 0 25 0;
#X connect 28 0 29 0;
#X connect 29 0 19 0;
#X connect 29 0 21 0;
#X connect 29 0 36 0;
#X connect 29 0 25 1;
#X connect 30 0 16 0;
#X connect 33 0 15 0;
#X connect 34 0 30 1;
#X connect 36 0 37 0;
#X connect 37 0 24 1;
#X connect 38 0 10 1;
#X connect 39 0 41 0;
#X connect 40 0 28 1;
#X connect 41 0 40 0;
#X connect 42 0 39 0;
#X connect 43 0 15 0;
#X connect 44 0 43 0;
#X connect 45 0 22 0;
#X connect 47 0 38 0;
#X restore 198 360 pd grains;
#N canvas 209 120 802 888 grains 0;
#X obj 3 2 inlet~;
#X obj 219 851 outlet~;
#X obj 58 752 vd~ b1;
#X obj 57 415 phasor~;
#X obj 58 595 *~ -1;
#X obj 58 620 +~ 1;
#X obj 114 737 sig~ 1;
#X obj 146 770 cos~;
#X obj 114 770 -~;
#X obj 114 795 *~ 0.5;
#X obj 58 796 *~;
#X obj 76 682 samphold~;
#X obj 58 709 *~;
#X obj 77 654 sig~;
#X floatatom 167 394 5 0 0 0 - - -, f 5;
#X floatatom 120 274 10 0 0 0 - - -, f 10;
#X floatatom 89 377 5 0 0 0 - - -, f 5;
#X obj 167 368 / 44.1;
#X obj 319 744 vd~ b1;
#X obj 319 576 *~ -1;
#X obj 319 609 +~ 1;
#X obj 404 773 cos~;
#X obj 374 772 -~;
#X obj 374 797 *~ 0.5;
#X obj 318 793 *~;
#X obj 337 677 samphold~;
#X obj 319 701 *~;
#X obj 337 649 sig~;
#X obj 319 490 +~ 0.5;
#X obj 319 512 wrap~;
#X obj 120 338 expr (pow(2 \, ($f2/12)) - 1) * (44100/$f1);
#X text 190 769 another way to;
#X text 164 795 make a Hanning window;
#X obj 119 97 inlet;
#X obj 273 63 inlet;
#N canvas 0 22 450 278 (subpatch) 0;
#X array taaab 100 float 1;
#A 0 0.0642857 0.121429 0.128572 0.15 0.164286 0.157143 0.164285 0.171428
0.171428 0.178571 0.185714 0.185714 0.192857 0.207142 0.221428 0.221428
0.22857 0.242856 0.249999 0.264284 0.27857 0.285713 0.292856 0.307141
0.314284 0.328569 0.342855 0.349998 0.342857 0.342857 0.342857 0.346429
0.35 0.357143 0.364285 0.364285 0.371428 0.371428 0.378571 0.385714
0.385714 0.385714 0.385714 0.385714 0.385714 0.385714 0.385714 0.385714
0.385714 0.385714 0.385714 0.385714 0.385714 0.385714 0.385714 0.385714
0.385714 0.385714 0.399999 0.399999 0.399999 0.399999 0.392857 0.385714
0.371428 0.371428 0.364285 0.364285 0.364285 0.364285 0.364285 0.364285
0.364285 0.364285 0.364285 0.357143 0.342857 0.335714 0.328572 0.328572
0.321429 0.307143 0.3 0.292858 0.285715 0.278572 0.264287 0.242858
0.235715 0.22143 0.214287 0.192859 0.185716 0.178573 0.17143 0.157145
0.157145 0.150002 0.150002 0.0928568;
#X coords 0 1 100 0 200 140 1 0 0;
#X restore 533 166 graph;
#X obj 383 542 *~ 44100;
#X obj 376 571 tabread~ taaab;
#X obj 121 581 tabread~ taaab;
#X obj 370 410 random 10;
#X floatatom 370 460 5 0 0 0 - - -, f 5;
#X obj 370 435 / 10;
#X obj 368 380 loadbang;
#X msg 51 229 5750.39;
#X obj 48 187 loadbang;
#X obj 374 741 sig~ 1;
#X obj 4 65 delwrite~ b1 500;
#X obj 129 552 *~ 44100;
#X connect 0 0 46 0;
#X connect 2 0 10 0;
#X connect 3 0 4 0;
#X connect 3 0 7 0;
#X connect 3 0 28 0;
#X connect 3 0 11 1;
#X connect 3 0 47 0;
#X connect 4 0 5 0;
#X connect 5 0 12 0;
#X connect 6 0 8 0;
#X connect 7 0 8 1;
#X connect 8 0 9 0;
#X connect 10 0 1 0;
#X connect 11 0 12 1;
#X connect 12 0 2 0;
#X connect 13 0 11 0;
#X connect 14 0 27 0;
#X connect 14 0 13 0;
#X connect 15 0 30 0;
#X connect 15 0 17 0;
#X connect 16 0 3 0;
#X connect 17 0 14 0;
#X connect 18 0 24 0;
#X connect 19 0 20 0;
#X connect 20 0 26 0;
#X connect 21 0 22 1;
#X connect 22 0 23 0;
#X connect 24 0 1 0;
#X connect 25 0 26 1;
#X connect 26 0 18 0;
#X connect 27 0 25 0;
#X connect 28 0 29 0;
#X connect 29 0 19 0;
#X connect 29 0 21 0;
#X connect 29 0 36 0;
#X connect 29 0 25 1;
#X connect 30 0 16 0;
#X connect 33 0 15 0;
#X connect 34 0 30 1;
#X connect 36 0 37 0;
#X connect 37 0 24 1;
#X connect 38 0 10 1;
#X connect 39 0 41 0;
#X connect 40 0 28 1;
#X connect 41 0 40 0;
#X connect 42 0 39 0;
#X connect 43 0 15 0;
#X connect 44 0 43 0;
#X connect 45 0 22 0;
#X connect 47 0 38 0;
#X restore 78 359 pd grains;
#X floatatom 739 679 5 0 0 0 - - -, f 5;
#X obj 739 700 t b f;
#X obj 691 516 vsl 15 128 100 30000 0 0 empty empty empty 0 -8 0 8
-262144 -1 -1 4205 1;
#X obj 691 652 t b f;
#X obj 739 599 vsl 15 73 -36 36 0 0 empty empty empty 0 -8 0 8 -262144
-1 -1 3600 1;
#X text 756 663 -36;
#X text 708 633 100;
#X obj 681 729 s gsize;
#X obj 738 732 s pitch;
#X obj 90 301 r gsize;
#X obj 109 325 r pitch;
#X obj 213 302 r gsize;
#X obj 244 330 r pitch;
#X obj 398 464 delwrite~ b1 500;
#X obj 739 574 expr 1 - ($f1 + 1);
#X obj 739 528 r fibi;
#X obj 648 237 tgl 15 0 empty empty empty 17 7 0 10 -262144 -1 -1 1
1;
#X obj 641 465 r fibi;
#X floatatom 641 512 5 0 0 0 - - -, f 5;
#X obj 739 550 / 10;
#X obj 641 489 expr 10000 - $f1;
#X obj 405 235 / 100000;
#X connect 0 0 1 0;
#X connect 3 0 46 0;
#X connect 4 0 7 0;
#X connect 5 0 32 0;
#X connect 5 0 2 0;
#X connect 9 0 4 0;
#X connect 12 0 32 1;
#X connect 12 0 2 1;
#X connect 13 0 9 0;
#X connect 13 0 43 1;
#X connect 14 0 15 0;
#X connect 15 0 93 0;
#X connect 16 0 4 0;
#X connect 19 0 18 0;
#X connect 20 0 18 0;
#X connect 21 0 56 0;
#X connect 22 0 57 0;
#X connect 23 0 21 0;
#X connect 24 0 22 0;
#X connect 25 0 24 0;
#X connect 26 0 23 0;
#X connect 27 0 25 0;
#X connect 29 0 18 0;
#X connect 30 0 31 0;
#X connect 33 0 50 0;
#X connect 34 0 37 0;
#X connect 34 1 36 0;
#X connect 35 0 32 0;
#X connect 36 0 32 0;
#X connect 37 0 35 0;
#X connect 37 1 38 0;
#X connect 38 0 32 0;
#X connect 39 0 41 1;
#X connect 40 0 41 0;
#X connect 42 0 85 0;
#X connect 43 0 28 0;
#X connect 44 0 43 0;
#X connect 45 0 16 1;
#X connect 46 0 14 0;
#X connect 46 0 47 0;
#X connect 46 0 71 0;
#X connect 46 1 70 0;
#X connect 49 0 85 0;
#X connect 50 0 34 0;
#X connect 51 0 50 1;
#X connect 56 0 65 1;
#X connect 57 0 66 1;
#X connect 58 0 62 0;
#X connect 58 0 60 0;
#X connect 59 0 67 0;
#X connect 61 0 59 0;
#X connect 62 0 61 0;
#X connect 63 0 64 0;
#X connect 64 0 61 0;
#X connect 67 0 11 0;
#X connect 68 0 69 0;
#X connect 69 0 88 0;
#X connect 70 0 12 0;
#X connect 71 0 5 0;
#X connect 72 0 73 0;
#X connect 73 0 79 0;
#X connect 73 1 80 0;
#X connect 74 0 75 0;
#X connect 75 0 72 0;
#X connect 75 1 79 0;
#X connect 76 0 72 0;
#X connect 81 0 71 1;
#X connect 82 0 71 2;
#X connect 83 0 70 1;
#X connect 84 0 70 2;
#X connect 86 0 76 0;
#X connect 87 0 91 0;
#X connect 88 0 67 1;
#X connect 89 0 92 0;
#X connect 91 0 86 0;
#X connect 92 0 74 0;
#X connect 92 0 90 0;
#X connect 93 0 16 0;
