#N canvas 220 335 489 397 10;
#X msg 94 73 read -maxsize 8.99172e+06 -resize wisper.wav fileL fileR
;
#N canvas 552 305 925 542 arrays 0;
#N canvas 0 22 450 278 (subpatch) 0;
#X array fileL 8.99172e+06 float 0;
#X coords 0 1 8.99172e+06 -1 200 140 1 0 0;
#X restore 97 0 graph;
#N canvas 0 22 450 278 (subpatch) 0;
#X array fileR 8.99172e+06 float 0;
#X coords 0 1 8.99172e+06 -1 200 140 1 0 0;
#X restore 108 240 graph;
#X restore 302 36 pd arrays;
#X obj 108 23 bng 15 250 50 0 empty empty empty 17 7 0 10 -262144 -1
-1;
#X obj 94 95 soundfiler;
#X obj -5 350 dac~;
#X obj 17 26 t f f;
#X obj 17 48 expr 1 - $f1;
#X obj 17 72 *;
#X obj 17 97 / 44.1;
#X msg 17 120 1 \$1;
#X msg -46 119 stop;
#X msg -36 49 1;
#X msg -26 94 0;
#X obj 211 348 s playback;
#X obj 279 238 t b b;
#X obj 279 262 f;
#X obj 279 327 +;
#X floatatom 279 350 10 0 0 0 - - -, f 10;
#X floatatom 306 327 10 0 0 0 - - -, f 10;
#X obj 306 284 - 5;
#X obj 324 238 r playback1;
#X obj 306 262 random 10;
#X obj 306 306 / 1000;
#X obj 305 217 bng 15 250 50 0 empty empty empty 17 7 0 10 -262144
-1 -1;
#X msg 211 316 0;
#X obj -11 155 line;
#X floatatom -11 177 10 0 0 0 - - -, f 10;
#X obj -11 196 s playback1;
#X obj -23 288 tabplay~ fileL;
#X obj 80 289 tabplay~ fileR;
#X obj 50 5 r playback;
#X msg 78 262 \$1;
#X obj 122 195 f;
#X floatatom 122 245 15 0 0 0 - - -, f 15;
#X obj 122 217 *;
#X connect 0 0 3 0;
#X connect 2 0 0 0;
#X connect 3 0 7 1;
#X connect 3 0 34 1;
#X connect 5 0 6 0;
#X connect 5 1 25 0;
#X connect 6 0 7 0;
#X connect 7 0 8 0;
#X connect 8 0 9 0;
#X connect 9 0 25 0;
#X connect 10 0 25 0;
#X connect 10 0 28 0;
#X connect 10 0 29 0;
#X connect 11 0 5 0;
#X connect 12 0 5 0;
#X connect 12 0 28 0;
#X connect 12 0 29 0;
#X connect 14 0 15 0;
#X connect 14 1 21 0;
#X connect 15 0 16 0;
#X connect 16 0 17 0;
#X connect 16 0 13 0;
#X connect 19 0 22 0;
#X connect 20 0 15 1;
#X connect 21 0 19 0;
#X connect 22 0 18 0;
#X connect 22 0 16 1;
#X connect 23 0 14 0;
#X connect 23 0 32 0;
#X connect 24 0 13 0;
#X connect 25 0 26 0;
#X connect 26 0 27 0;
#X connect 26 0 32 1;
#X connect 28 0 4 0;
#X connect 29 0 4 1;
#X connect 30 0 5 0;
#X connect 31 0 29 0;
#X connect 31 0 28 0;
#X connect 32 0 34 0;
#X connect 33 0 31 0;
#X connect 34 0 33 0;
